<svg xmlns="http://www.w3.org/2000/svg" xmlns:xlink="http://www.w3.org/1999/xlink" version="1.1" x="0px" y="0px" viewBox="0 0 100 125" enable-background="new 0 0 100 100" xml:space="preserve"><g><g><path d="M82.769,54.932c6.554-6.249,10.093-14.872,10.245-23.831c0.106-6.209-2.684-11.825-9.536-11.532    c-10.114,0.432-16.743,10.684-22.788,17.371c-0.181,0.199-0.289,0.413-0.348,0.627L58.5,35.875L58,37.5L52.875,45l-1.25-0.875    V37.5c3.5-1.625,3.625-5.125,3.625-5.125c0.125-2.75,2.25-3.625,2.25-3.625c4-1.75,5.125-4.25,5.125-4.25c1.125-1-8.875-1-8.875-1    l-1.375-1.625c4.5-3.125,1.375-7.125,1.375-7.125c6.25-5,3.875-6.375,3.875-6.375c-4.25-2.5-16.5-0.875-16.5-0.875    C38.375,8,38.875,9,38.875,9c0,2.25,4.125,6,4.125,6c-3.5,4.5,1.25,6.75,1.25,6.75l-0.75,1.875l-7.5-0.25    c-1.625,0-1.5,0.25-1.5,0.25c0.125,3,5,4.875,5,4.875c1.875,0.375,1.875,2.375,1.875,2.375C41,35.125,45,37.375,45,37.375v6.5    C44.625,44.25,44.25,45,44.25,45l-2-5.125H38l-0.125,3.875l4.625,2.625c-0.875,1.375-0.625,4-0.625,4    c-1.875,1.375-2.5,2.75-2.5,2.75L39.5,56.5c1.125,1.125,1.875,1,1.875,1v2.86c-2.071,0.494-4.101,1.127-6.047,1.929    c-5.175,2.132-8.478,6.202-8.932,10.69c-1.318,0.735-2.523,1.576-3.651,2.517l-0.258-0.239c0,0-3.398-0.107-5.5,5.25    c0,0-4.151,1.009-4.043,5.168c0,0-4.077,1.563-1.556,4.384c0,0,3.142,2.397,4.342-2.953c0,0,3.631,0.679,3.828-3.804    c0.109-0.129,0.216-0.267,0.325-0.394c0.912-0.244,3.656-1.264,4.854-4.763c0.626-0.514,1.272-1.004,1.936-1.472    c0.476,1.899,1.479,3.8,3.083,5.594c3.314,3.707,9.055,5.075,13.67,6.143c5.777,1.335,12.191,1.789,18.043,0.743    c6.706-1.198,19.983-7.629,16.075-16.708c-2.725-6.331-9.843-8.243-16.99-8.804c-0.766-0.667-1.634-1.265-2.58-1.79    C67.136,61.796,75.523,61.839,82.769,54.932z M61.875,41l1.25-0.875l-0.778-0.715c0.161-0.078,0.318-0.188,0.464-0.35    c4.014-4.44,7.556-9.366,12.369-13.003c5.548-4.19,13.725-5.589,14.742,2.99c1.385,11.662-6.591,25.698-18.057,28.981    c-5.245,1.502-11.003,1.014-16.54,0.926l0.05-1.58l1.5-0.75V54c0-2.25-2.25-3.375-2.25-3.375c0.125-3.625-0.5-4.375-0.5-4.375    L61.875,41z M34.191,66.245c-0.761,1.196-1.27,2.497-1.447,3.873c-1.086,0.49-2.207,0.94-3.299,1.402    C30.161,69.238,32.08,67.514,34.191,66.245z M74.464,72.821c2.604,3.986-2.304,8.339-5.118,10.301    c-9.278,6.467-26.567,4.19-35.727-1.503c-2.358-1.465-3.983-3.906-4.389-6.584c1.156-0.667,2.385-1.283,3.689-1.855    C34.218,78.188,40.691,80,48.5,80c8.745,0,15.833-2.261,15.833-8.75c0-1.4-0.347-2.736-0.952-3.981    c0.258,0.024,0.519,0.05,0.775,0.074C68.283,67.731,72.12,69.232,74.464,72.821z"/></g></g><text x="0" y="115" fill="#000000" font-size="5px" font-weight="bold" font-family="'Helvetica Neue', Helvetica, Arial-Unicode, Arial, Sans-serif">Created by Boudewijn Mijnlieff</text><text x="0" y="120" fill="#000000" font-size="5px" font-weight="bold" font-family="'Helvetica Neue', Helvetica, Arial-Unicode, Arial, Sans-serif">from the Noun Project</text></svg>